<?xml version="1.0" encoding="utf-8"?>
<!-- Generator: Adobe Illustrator 16.0.0, SVG Export Plug-In . SVG Version: 6.00 Build 0)  -->
<!DOCTYPE svg PUBLIC "-//W3C//DTD SVG 1.1 Tiny//EN" "http://www.w3.org/Graphics/SVG/1.1/DTD/svg11-tiny.dtd">
<svg version="1.1" baseProfile="tiny" id="Layer_1" xmlns="http://www.w3.org/2000/svg" xmlns:xlink="http://www.w3.org/1999/xlink"
	 x="0px" y="0px" width="161px" height="201px" viewBox="0 0 161 201" xml:space="preserve">
<g transform="translate(1 -1)">
<polygon fill="#005030" stroke="#FFFFFF" stroke-width="0" stroke-linecap="square" stroke-miterlimit="10" points="57.9,124.4 
		38.3,119.7 39.3,115 40,110.3 40.4,105.6 40.5,100.8 40.4,96.1 40,91.4 39.3,86.7 38.3,82 57.9,77.3 56.5,72.2 54.9,67.2 53,62.3 
		50.9,57.5 48.5,52.8 45.8,48.2 28.6,58.7 26,54.7 23.2,50.9 20.2,47.3 16.9,43.8 13.5,40.6 9.8,37.5 6,34.7 2,32.1 12.6,14.9 
		17.3,12.4 22.2,10.2 27.1,8.3 32.2,6.6 37.3,5.2 42.5,4 47.8,3.2 53.1,2.6 58.4,2.4 63.8,2.4 69.1,2.7 74.4,3.3 79.6,4.2 84.8,5.4 
		90,6.8 95,8.5 100,10.5 104.8,12.8 109.5,15.3 114.1,18.1 118.5,21.1 122.7,24.3 126.8,27.8 130.6,31.5 134.3,35.4 137.7,39.5 
		140.9,43.8 143.9,48.2 86.1,48.2 86.1,77.3 156.3,77.3 157.4,82.5 158.2,87.7 158.8,92.9 159.1,98.2 159.1,103.5 158.8,108.8 
		158.2,114 157.4,119.2 156.3,124.4 86.1,124.4 86.1,153.5 143.9,153.5 140.9,157.9 137.7,162.2 134.3,166.3 130.6,170.2 
		126.8,173.9 122.7,177.3 118.5,180.6 114.1,183.6 109.5,186.4 104.8,188.9 100,191.2 95,193.1 90,194.9 84.8,196.3 79.6,197.5 
		74.4,198.4 69.1,199 63.8,199.3 58.4,199.3 53.1,199.1 47.8,198.5 42.5,197.7 37.3,196.6 32.2,195.1 27.1,193.5 22.2,191.5 
		17.3,189.3 12.6,186.8 2,169.6 6,167 9.8,164.2 13.5,161.1 16.9,157.9 20.2,154.4 23.2,150.8 26,147 28.6,143 45.8,153.5 
		48.5,148.9 50.9,144.2 53,139.4 54.9,134.5 56.5,129.5 	"/>
</g>
</svg>
