<?xml version="1.0" encoding="utf-8"?>
<!DOCTYPE svg PUBLIC "-//W3C//DTD SVG 1.1 Tiny//EN" "http://www.w3.org/Graphics/SVG/1.1/DTD/svg11-tiny.dtd">
<svg version="1.1" baseProfile="tiny" id="Layer_1" xmlns="http://www.w3.org/2000/svg" xmlns:xlink="http://www.w3.org/1999/xlink"
	 x="0px" y="0px" width="161px" height="201px" viewBox="0 0 161 201" xml:space="preserve">
<g>
	<polygon fill="#f47321" stroke="#fff" stroke-width="0" stroke-linecap="square" stroke-miterlimit="10" points="148.3,13.9 
		143.6,11.4 138.8,9.2 133.8,7.3 128.8,5.6 123.6,4.2 118.4,3 113.2,2.2 107.9,1.6 102.6,1.4 97.3,1.4 91.9,1.7 86.6,2.3 81.4,3.2 
		76.2,4.3 71.1,5.8 66,7.5 61.1,9.5 56.3,11.7 51.6,14.2 47,16.9 42.6,19.9 38.4,23.2 34.3,26.6 30.5,30.3 26.8,34.2 23.4,38.2 
		20.2,42.5 17.2,46.9 14.5,51.5 12,56.2 9.7,61 7.8,65.9 6.1,71 4.6,76.1 3.5,81.3 2.7,86.6 2.1,91.9 1.8,97.2 1.8,102.5 2.1,107.8 
		2.7,113.1 3.5,118.4 4.6,123.6 6.1,128.7 7.8,133.8 9.7,138.7 12,143.5 14.5,148.2 17.2,152.8 20.2,157.2 23.4,161.5 26.8,165.5 
		30.5,169.4 34.3,173.1 38.4,176.5 42.6,179.8 47,182.7 51.6,185.5 56.3,188 61.1,190.2 66,192.2 71.1,193.9 76.2,195.4 81.4,196.5 
		86.6,197.4 91.9,198 97.3,198.3 102.6,198.3 107.9,198.1 113.2,197.5 118.4,196.6 123.6,195.5 128.8,194.1 133.8,192.4 
		138.8,190.5 143.6,188.3 148.3,185.8 158.8,168.6 154.9,166 151.1,163.2 147.4,160.1 144,156.9 140.7,153.4 137.6,149.8 134.8,146 
		132.2,142 115,152.5 111,153.5 107,154.1 102.9,154.5 98.8,154.5 94.7,154.3 90.6,153.7 86.5,152.8 82.6,151.7 78.8,150.2 
		75,148.4 71.4,146.4 68,144.1 64.8,141.5 61.7,138.8 58.9,135.7 56.3,132.5 54,129.1 51.9,125.6 50.1,121.9 48.6,118 47.4,114.1 
		46.5,110.1 45.9,106 45.6,101.9 45.6,97.8 45.9,93.7 46.5,89.6 47.4,85.6 48.6,81.7 50.1,77.8 51.9,74.1 54,70.6 56.3,67.1 
		58.9,63.9 61.7,60.9 64.8,58.2 68,55.6 71.4,53.3 75,51.3 78.8,49.5 82.6,48 86.5,46.9 90.6,46 94.7,45.4 98.8,45.1 102.9,45.2 
		107,45.6 111,46.2 115,47.2 132.2,57.7 134.8,53.7 137.6,49.9 140.7,46.3 144,42.8 147.4,39.6 151.1,36.5 154.9,33.7 158.8,31.1 	
		"/>
</g>
</svg>


