<?xml version="1.0" encoding="utf-8"?>
<!-- Generator: Adobe Illustrator 16.0.0, SVG Export Plug-In . SVG Version: 6.00 Build 0)  -->
<!DOCTYPE svg PUBLIC "-//W3C//DTD SVG 1.1 Tiny//EN" "http://www.w3.org/Graphics/SVG/1.1/DTD/svg11-tiny.dtd">
<svg version="1.1" baseProfile="tiny" id="Layer_1" xmlns="http://www.w3.org/2000/svg" xmlns:xlink="http://www.w3.org/1999/xlink"
	 x="0px" y="0px" width="196px" height="196px" viewBox="0 0 196 196" xml:space="preserve">
<g>
	<path fill="#FFFFFF" d="M177.3,112.4l0.7-4.7l0.4-4.7l0.1-4.8l-0.1-4.7l-0.4-4.8l-0.7-4.7l-1-4.7l19.6-4.7l-1.4-5.1l-1.6-5
		l-1.9-4.9l-2.2-4.8l-2.4-4.7l-2.6-4.6L166.6,56l-2.6-4l-2.8-3.8l-3-3.6l-3.3-3.5l-3.5-3.3l-3.6-3.1l-3.8-2.8l-4-2.6l10.5-17.2
		L146,9.4L141.3,7l-4.8-2.1L131.5,3l-5-1.6L121.5,0l-4.7,19.6l-4.7-1l-4.7-0.7l-4.7-0.4l-4.8-0.1l-4.7,0.1l-4.7,0.4l-4.7,0.7l-4.6,1
		L74.4,0.2l-5.1,1.4l-5,1.6l-4.9,1.9l-4.8,2.1l-4.7,2.4l-4.6,2.7l10.5,17.2l-4,2.6L48,34.9L44.4,38L41,41.2l-3.3,3.5l-3.1,3.6
		l-2.8,3.8l-2.6,4L12,45.6l-2.7,4.6L7,54.9l-2.1,4.8L3,64.6l-1.6,5L0,74.7l19.6,4.7l-1,4.7l-0.7,4.7l-0.4,4.8l-0.1,4.7l0.1,4.8
		l0.4,4.7l0.7,4.7l1,4.6L0,121.8l1.4,5.1l1.6,5l1.9,4.9l2.1,4.8l2.4,4.7l2.7,4.6l17.1-10.5l2.6,4l2.8,3.8l3.1,3.7l3.3,3.5l3.5,3.3
		l3.6,3l3.8,2.8l4,2.6l-10.5,17.2l4.6,2.6l4.7,2.4l4.8,2.2l4.9,1.9l5,1.6l5.1,1.4l4.7-19.6l4.6,1l4.7,0.7l4.7,0.4L98,179l4.8-0.1
		l4.7-0.4l4.7-0.7l4.7-1l4.7,19.6l5.1-1.4l5-1.6l4.9-1.9l4.8-2.2l4.7-2.4l4.6-2.6L140,167l4-2.6l3.8-2.8l3.6-3l3.5-3.3l3.3-3.5
		l3-3.7l2.8-3.8l2.6-4l17.2,10.6l2.6-4.6l2.4-4.7l2.2-4.8l1.9-4.9l1.6-5l1.4-5.1l-19.6-4.7L177.3,112.4z M98,138.2
		c-22.1,0-40-17.9-40-40c0-22.1,17.9-40,40-40s40,17.9,40,40C138,120.3,120.1,138.2,98,138.2z"/>
</g>
<g>
</g>
<g>
</g>
<g>
</g>
<g>
</g>
<g>
</g>
<g>
</g>
</svg>
