<?xml version="1.0" encoding="utf-8"?>
<!-- Generator: Adobe Illustrator 16.0.0, SVG Export Plug-In . SVG Version: 6.00 Build 0)  -->
<!DOCTYPE svg PUBLIC "-//W3C//DTD SVG 1.1 Tiny//EN" "http://www.w3.org/Graphics/SVG/1.1/DTD/svg11-tiny.dtd">
<svg version="1.1" baseProfile="tiny" id="Layer_1" xmlns="http://www.w3.org/2000/svg" xmlns:xlink="http://www.w3.org/1999/xlink"
	 x="0px" y="0px" width="402px" height="201px" viewBox="0 0 402 201" xml:space="preserve">
<g>
	<polygon fill="#F47423" stroke="#FFFFFF" stroke-width="3" stroke-linecap="square" stroke-miterlimit="10" points="148.9,15.5 
		144.2,13 139.4,10.8 134.4,8.9 129.4,7.2 124.2,5.8 119,4.6 113.8,3.8 108.5,3.2 103.2,3 97.9,3 92.5,3.3 87.2,3.9 82,4.8 
		76.8,5.9 71.7,7.4 66.6,9.1 61.7,11.1 56.9,13.3 52.2,15.8 47.6,18.5 43.2,21.5 39,24.8 34.9,28.2 31.1,31.9 27.4,35.8 24,39.8 
		20.8,44.1 17.8,48.5 15.1,53.1 12.6,57.8 10.3,62.6 8.4,67.5 6.7,72.6 5.2,77.7 4.1,82.9 3.3,88.2 2.7,93.5 2.4,98.8 2.4,104.1 
		2.7,109.4 3.3,114.7 4.1,120 5.2,125.2 6.7,130.3 8.4,135.4 10.3,140.3 12.6,145.1 15.1,149.8 17.8,154.4 20.8,158.8 24,163.1 
		27.4,167.1 31.1,171 34.9,174.7 39,178.1 43.2,181.4 47.6,184.3 52.2,187.1 56.9,189.6 61.7,191.8 66.6,193.8 71.7,195.5 76.8,197 
		82,198.1 87.2,199 92.5,199.6 97.9,199.9 103.2,199.9 108.5,199.7 113.8,199.1 119,198.2 124.2,197.1 129.4,195.7 134.4,194 
		139.4,192.1 144.2,189.9 148.9,187.4 159.4,170.2 155.5,167.6 151.7,164.8 148,161.7 144.6,158.5 141.3,155 138.2,151.4 
		135.4,147.6 132.8,143.6 115.6,154.1 111.6,155.1 107.6,155.7 103.5,156.1 99.4,156.1 95.3,155.9 91.2,155.3 87.1,154.4 
		83.2,153.3 79.4,151.8 75.6,150 72,148 68.6,145.7 65.4,143.1 62.3,140.4 59.5,137.3 56.9,134.1 54.6,130.7 52.5,127.2 50.7,123.5 
		49.2,119.6 48,115.7 47.1,111.7 46.5,107.6 46.2,103.5 46.2,99.4 46.5,95.3 47.1,91.2 48,87.2 49.2,83.3 50.7,79.4 52.5,75.7 
		54.6,72.2 56.9,68.7 59.5,65.5 62.3,62.5 65.4,59.8 68.6,57.2 72,54.9 75.6,52.9 79.4,51.1 83.2,49.6 87.1,48.5 91.2,47.6 95.3,47 
		99.4,46.7 103.5,46.8 107.6,47.2 111.6,47.8 115.6,48.8 132.8,59.3 135.4,55.3 138.2,51.5 141.3,47.9 144.6,44.4 148,41.2 
		151.7,38.1 155.5,35.3 159.4,32.7 	"/>
</g>
<g transform="translate(1 -1)">
	<polygon fill="#035131" stroke="#FFFFFF" stroke-width="3" stroke-linecap="square" stroke-miterlimit="10" points="298.9,126 
		279.3,121.3 280.3,116.6 281,111.9 281.4,107.2 281.5,102.4 281.4,97.7 281,93 280.3,88.3 279.3,83.6 298.9,78.9 297.5,73.8 
		295.9,68.8 294,63.9 291.9,59.1 289.5,54.4 286.8,49.8 269.6,60.3 267,56.3 264.2,52.5 261.2,48.9 257.9,45.4 254.5,42.2 
		250.8,39.1 247,36.3 243,33.7 253.6,16.5 258.3,14 263.2,11.8 268.1,9.9 273.2,8.2 278.3,6.8 283.5,5.6 288.8,4.8 294.1,4.2 
		299.4,4 304.8,4 310.1,4.3 315.4,4.9 320.6,5.8 325.8,7 331,8.4 336,10.1 341,12.1 345.8,14.4 350.5,16.9 355.1,19.7 359.5,22.7 
		363.7,25.9 367.8,29.4 371.6,33.1 375.3,37 378.7,41.1 381.9,45.4 384.9,49.8 327.1,49.8 327.1,78.9 397.3,78.9 398.4,84.1 
		399.2,89.3 399.8,94.5 400.1,99.8 400.1,105.1 399.8,110.4 399.2,115.6 398.4,120.8 397.3,126 327.1,126 327.1,155.1 384.9,155.1 
		381.9,159.5 378.7,163.8 375.3,167.9 371.6,171.8 367.8,175.5 363.7,178.9 359.5,182.2 355.1,185.2 350.5,188 345.8,190.5 
		341,192.8 336,194.7 331,196.5 325.8,197.9 320.6,199.1 315.4,200 310.1,200.6 304.8,200.9 299.4,200.9 294.1,200.7 288.8,200.1 
		283.5,199.3 278.3,198.2 273.2,196.7 268.1,195.1 263.2,193.1 258.3,190.9 253.6,188.4 243,171.2 247,168.6 250.8,165.8 
		254.5,162.7 257.9,159.5 261.2,156 264.2,152.4 267,148.6 269.6,144.6 286.8,155.1 289.5,150.5 291.9,145.8 294,141 295.9,136.1 
		297.5,131.1 	"/>
</g>
<path fill="#FFFFFF" d="M281.3,115.6l0.7-4.7l0.4-4.7l0.1-4.8l-0.1-4.7l-0.4-4.8l-0.7-4.7l-1-4.7l19.6-4.7l-1.4-5.1l-1.6-5l-1.9-4.9
	l-2.2-4.8l-2.4-4.7l-2.6-4.6l-17.2,10.5l-2.6-4l-2.8-3.8l-3-3.6l-3.3-3.5l-3.5-3.3l-3.6-3.1l-3.8-2.8l-4-2.6l10.5-17.2l-4.6-2.7
	l-4.7-2.4l-4.8-2.1l-4.9-1.9l-5-1.6l-5.1-1.4l-4.7,19.6l-4.7-1l-4.7-0.7l-4.7-0.4l-4.8-0.1l-4.7,0.1l-4.7,0.4l-4.7,0.7l-4.6,1
	l-4.7-19.4l-5.1,1.4l-5,1.6l-4.9,1.9l-4.8,2.1l-4.7,2.4l-4.6,2.7l10.5,17.2l-4,2.6l-3.8,2.8l-3.6,3.1l-3.4,3.2l-3.3,3.5l-3.1,3.6
	l-2.8,3.8l-2.6,4L116,48.8l-2.7,4.6l-2.3,4.7l-2.1,4.8l-1.9,4.9l-1.6,5l-1.4,5.1l19.6,4.7l-1,4.7l-0.7,4.7l-0.4,4.8l-0.1,4.7
	l0.1,4.8l0.4,4.7l0.7,4.7l1,4.6L104,125l1.4,5.1l1.6,5l1.9,4.9l2.1,4.8l2.4,4.7l2.7,4.6l17.1-10.5l2.6,4l2.8,3.8l3.1,3.7l3.3,3.5
	l3.5,3.3l3.6,3l3.8,2.8l4,2.6l-10.5,17.2l4.6,2.6l4.7,2.4l4.8,2.2l4.9,1.9l5,1.6l5.1,1.4l4.7-19.6l4.6,1l4.7,0.7l4.7,0.4l4.7,0.1
	l4.8-0.1l4.7-0.4l4.7-0.7l4.7-1l4.7,19.6l5.1-1.4l5-1.6l4.9-1.9l4.8-2.2l4.7-2.4l4.6-2.6L244,170.2l4-2.6l3.8-2.8l3.6-3l3.5-3.3
	l3.3-3.5l3-3.7l2.8-3.8l2.6-4l17.2,10.6l2.6-4.6l2.4-4.7l2.2-4.8l1.9-4.9l1.6-5l1.4-5.1l-19.6-4.7L281.3,115.6z M242.1,105l-0.5,3.5
	l-0.8,3.4l-1.1,3.3l-1.4,3.3l-1.6,3.1l-1.9,3l-2.2,2.8l-2.4,2.6l-2.6,2.4l-2.8,2.2l-3,1.9l-3.1,1.6l-3.3,1.4l-3.3,1.1l-3.4,0.8
	l-3.5,0.5l-3.5,0.1l-3.5-0.1l-3.5-0.5l-3.4-0.8l-3.3-1.1l-3.3-1.4l-3.1-1.6l-3-1.9l-2.8-2.2l-2.6-2.4l-2.4-2.6l-2.1-2.8l-1.9-3
	l-1.6-3.1l-1.3-3.3l-1.1-3.3l-0.8-3.4l-0.5-3.5l-0.1-3.5l0.1-3.5l0.5-3.5l0.8-3.4l1.1-3.3l1.3-3.3l1.6-3.1l1.9-3l2.1-2.8l2.4-2.6
	l2.8-2.4l2.8-2.1l3-1.9l3.1-1.6l3.3-1.4l3.3-1l3.4-0.8l3.5-0.5l3.5-0.1l3.5,0.1l3.5,0.5l3.4,0.8l3.3,1l3.3,1.4l3.1,1.6l3,1.9
	l2.8,2.1l2.6,2.4l2.4,2.6l2.2,2.8l1.9,3l1.6,3.1l1.4,3.3l1.1,3.3l0.8,3.4l0.5,3.5l0.1,3.5L242.1,105z"/>
<g>
</g>
<g>
</g>
<g>
</g>
<g>
</g>
<g>
</g>
<g>
</g>
</svg>
